<?xml version="1.0" encoding="utf-8"?>
<!-- Generator: Adobe Illustrator 27.0.0, SVG Export Plug-In . SVG Version: 6.00 Build 0)  -->
<svg version="1.1" id="Layer_1" xmlns="http://www.w3.org/2000/svg" xmlns:xlink="http://www.w3.org/1999/xlink" x="0px" y="0px"
	 viewBox="0 0 3968.5 1204.2" style="enable-background:new 0 0 3968.5 1204.2;" xml:space="preserve">
<style type="text/css">
	.st0{fill:#FFFFFF;}
	.st1{fill:#FFFFFF;stroke:#FFFFFF;stroke-width:3.0183;stroke-miterlimit:10;}
</style>
<g>
	<path class="st0" d="M1198.8,723.2c-21.3-57.9-83.7-27.4-123-0.7c-44.2,30.2-90.9,56.5-140.7,76.4
		c-55.3,22.2-155.4,48.4-254.5,71.9l34.7,101.3L275.5,821.7L648.7,593l-6.4,127.6c0,0,527.5-84.2,527.5-364.8
		C1169.8,75,895.1-52.5,605.5,20c0,0-648.8,197.4-603.2,703.5c11.9,131.4,69.2,255.7,163.8,347.6
		c387.9,377.3,963.1-167.4,963.1-167.4S1230.5,810.1,1198.8,723.2z M640.1,286.9c24.2-23.8,57.6-37.2,91.2-32.6
		c20,2.7,41,11.6,55.4,34c35.5,55.3,1.3,122.1-59,148.6c-36.8,16.2-91.8,30.6-173.3,36.5C554.3,473.4,566.8,359.4,640.1,286.9z"/>
	<path class="st1" d="M1980.9,1173.3c-7.9,3.5-19.8,6.6-37.4,7.9c0,0,2.7-24.6,18.5-40.2c5.2-5.1,12.4-8,19.7-7
		c4.3,0.6,8.8,2.5,12,7.3C2001.3,1153.1,1993.9,1167.6,1980.9,1173.3z"/>
	<g>
		<g>
			<g>
				<path class="st0" d="M1883.7,535.1h-326c2.7,32.2,13.9,57.4,33.8,75.7c19.8,18.2,44.3,27.4,73.3,27.4c41.9,0,71.6-18,89.4-53.9
					h121.5c-12.9,42.9-37.6,78.2-74,105.9c-36.5,27.6-81.3,41.5-134.4,41.5c-42.9,0-81.4-9.5-115.5-28.6c-34.1-19-60.6-46-79.7-80.9
					c-19.1-34.9-28.6-75.1-28.6-120.7c0-46.1,9.4-86.7,28.2-121.5c18.8-34.9,45.1-61.7,78.9-80.5c33.8-18.8,72.7-28.2,116.7-28.2
					c42.4,0,80.4,9.1,113.9,27.4c33.5,18.3,59.6,44.1,78.1,77.7c18.5,33.5,27.8,72,27.8,115.5
					C1886.9,507.7,1885.8,522.2,1883.7,535.1z M1770.2,459.4c-0.5-29-11-52.2-31.4-69.6c-20.4-17.4-45.4-26.2-74.9-26.2
					c-27.9,0-51.4,8.4-70.4,25.4c-19.1,16.9-30.7,40.4-35,70.4H1770.2z"/>
				<path class="st0" d="M2057.1,709.8c-31.4-13.4-56.2-32.7-74.5-58c-18.2-25.2-27.6-55-28.2-89.4h120.8
					c1.6,23.1,9.8,41.3,24.5,54.7c14.8,13.4,35,20.1,60.8,20.1c26.3,0,46.9-6.3,62-18.9c15-12.6,22.5-29.1,22.5-49.5
					c0-16.6-5.1-30.3-15.3-41.1c-10.2-10.7-22.9-19.2-38.2-25.4c-15.3-6.2-36.4-13-63.2-20.5c-36.5-10.7-66.1-21.3-88.9-31.8
					c-22.8-10.5-42.4-26.3-58.8-47.5c-16.4-21.2-24.5-49.5-24.5-84.9c0-33.3,8.3-62.2,25-86.9c16.6-24.7,40-43.6,70-56.7
					c30-13.1,64.4-19.7,103-19.7c58,0,105.1,14.1,141.3,42.3c36.2,28.2,56.2,67.5,60,117.9h-124c-1.1-19.3-9.3-35.3-24.5-47.9
					c-15.3-12.6-35.6-18.9-60.8-18.9c-22,0-39.6,5.6-52.7,16.9c-13.2,11.3-19.7,27.7-19.7,49.1c0,15,5,27.5,14.9,37.4
					c9.9,9.9,22.3,18,37,24.1c14.8,6.2,35.5,13.3,62.4,21.3c36.5,10.7,66.3,21.5,89.3,32.2c23.1,10.7,42.9,26.8,59.6,48.3
					c16.6,21.5,24.9,49.6,24.9,84.5c0,30.1-7.8,58-23.3,83.7c-15.6,25.8-38.4,46.3-68.4,61.6c-30.1,15.3-65.7,22.9-107.1,22.9
					C2123.8,729.9,2088.5,723.2,2057.1,709.8z"/>
				<path class="st0" d="M2800.5,294c26.3,14.8,46.8,36.5,61.6,65.2c14.8,28.7,22.1,63.2,22.1,103.4v261.6h-112.7V478
					c0-35.4-8.9-62.7-26.6-81.7c-17.7-19-41.9-28.6-72.5-28.6c-31.1,0-55.7,9.5-73.6,28.6c-18,19.1-27,46.3-27,81.7v246.3h-112.7
					V128.6h112.7v205.3c14.5-19.3,33.8-34.5,58-45.5c24.2-11,51-16.5,80.5-16.5C2744.2,271.9,2774.2,279.3,2800.5,294z"/>
				<path class="st0" d="M3073.4,702.9c-34.3-19-61.3-46-80.9-80.9c-19.6-34.9-29.4-75.1-29.4-120.7c0-45.6,10.1-85.9,30.2-120.7
					c20.1-34.9,47.6-61.8,82.5-80.9c34.9-19,73.8-28.6,116.7-28.6c42.9,0,81.8,9.5,116.7,28.6c34.9,19.1,62.4,46,82.5,80.9
					c20.1,34.9,30.2,75.1,30.2,120.7c0,45.6-10.3,85.9-31,120.7c-20.7,34.9-48.6,61.9-83.7,80.9c-35.2,19.1-74.5,28.6-117.9,28.6
					C3146.4,731.5,3107.7,722,3073.4,702.9z M3246.9,618.4c18-9.9,32.3-24.8,43.1-44.7c10.7-19.8,16.1-44,16.1-72.5
					c0-42.4-11.1-75-33.4-97.8c-22.3-22.8-49.5-34.2-81.7-34.2c-32.2,0-59.2,11.4-80.9,34.2c-21.7,22.8-32.6,55.4-32.6,97.8
					c0,42.4,10.6,75,31.8,97.8c21.2,22.8,47.9,34.2,80.1,34.2C3209.7,633.3,3228.9,628.4,3246.9,618.4z"/>
				<path class="st0" d="M3677.5,291.6c25.5-13.7,54.6-20.5,87.3-20.5c38.1,0,72.6,9.4,103.4,28.2c30.8,18.8,55.3,45.5,73.3,80.1
					c18,34.6,27,74.7,27,120.3c0,45.6-9,86-27,121.1c-18,35.2-42.4,62.4-73.3,81.7c-30.9,19.3-65.3,29-103.4,29
					c-32.7,0-61.6-6.7-86.5-20.1c-25-13.4-45.2-30.3-60.8-50.7v276.1h-112.7V278.3h112.7v64.4C3632,322.3,3652,305.3,3677.5,291.6z
					 M3836.9,430.1c-11-19.6-25.5-34.5-43.5-44.7c-18-10.2-37.4-15.3-58.4-15.3c-20.4,0-39.6,5.2-57.6,15.7
					c-18,10.5-32.5,25.6-43.5,45.5c-11,19.9-16.5,43.2-16.5,70c0,26.8,5.5,50.2,16.5,70c11,19.9,25.5,35,43.5,45.5
					c18,10.5,37.1,15.7,57.6,15.7c20.9,0,40.4-5.4,58.4-16.1c18-10.7,32.5-26,43.5-45.9c11-19.8,16.5-43.5,16.5-70.8
					C3853.4,472.9,3847.9,449.7,3836.9,430.1z"/>
			</g>
		</g>
		<g>
			<g>
				<path class="st0" d="M1498.9,1063.1c-14.3-8-25.6-19.1-33.9-33.3c-8.3-14.2-12.5-30.2-12.5-48.1c0-17.7,4.2-33.7,12.5-47.9
					c8.3-14.2,19.6-25.3,33.9-33.3c14.3-8,29.9-12,47-12c17.2,0,32.9,4,47.1,12c14.2,8,25.4,19.1,33.6,33.3s12.4,30.1,12.4,47.9
					c0,17.9-4.1,34-12.4,48.1c-8.3,14.2-19.5,25.3-33.8,33.3c-14.3,8-29.9,12-46.9,12C1528.8,1075.1,1513.2,1071.1,1498.9,1063.1z
					 M1574.8,1035.1c8.3-5,14.9-12,19.6-21.3c4.7-9.2,7-19.9,7-32.1c0-12.2-2.3-22.8-7-32c-4.7-9.1-11.2-16.1-19.6-21
					c-8.3-4.9-18-7.3-28.9-7.3c-11,0-20.7,2.4-29.1,7.3c-8.4,4.9-15,11.9-19.7,21c-4.7,9.1-7,19.8-7,32c0,12.2,2.3,22.9,7,32.1
					c4.7,9.2,11.3,16.3,19.7,21.3c8.4,5,18.1,7.4,29.1,7.4C1556.8,1042.5,1566.5,1040,1574.8,1035.1z"/>
				<path class="st0" d="M1787.9,943c10.6,10.9,15.9,26,15.9,45.5v84.8h-36.5v-79.8c0-11.5-2.9-20.3-8.6-26.5
					c-5.7-6.2-13.6-9.3-23.5-9.3c-10.1,0-18,3.1-23.9,9.3c-5.8,6.2-8.7,15-8.7,26.5v79.8h-36.5V928.8h36.5v18
					c4.9-6.3,11.1-11.2,18.7-14.7c7.6-3.6,15.9-5.3,24.9-5.3C1763.4,926.7,1777.3,932.1,1787.9,943z"/>
				<path class="st0" d="M1875.1,880.2v193h-36.5v-193H1875.1z"/>
				<path class="st0" d="M1913.5,905.4c-4.3-4.1-6.4-9.2-6.4-15.3c0-6.1,2.1-11.2,6.4-15.3c4.3-4.1,9.6-6.1,16-6.1s11.8,2,16,6.1
					c4.3,4.1,6.4,9.2,6.4,15.3c0,6.1-2.1,11.2-6.4,15.3c-4.3,4.1-9.6,6.1-16,6.1S1917.8,909.5,1913.5,905.4z M1947.6,928.8v144.5
					H1911V928.8H1947.6z"/>
				<path class="st0" d="M2105.4,943c10.6,10.9,15.9,26,15.9,45.5v84.8h-36.5v-79.8c0-11.5-2.9-20.3-8.6-26.5
					c-5.7-6.2-13.6-9.3-23.5-9.3c-10.1,0-18,3.1-23.9,9.3c-5.8,6.2-8.7,15-8.7,26.5v79.8h-36.5V928.8h36.5v18
					c4.9-6.3,11.1-11.2,18.6-14.7c7.6-3.6,15.9-5.3,24.9-5.3C2080.8,926.7,2094.8,932.1,2105.4,943z"/>
				<path class="st0" d="M2289.3,1012h-105.6c0.9,10.4,4.5,18.6,11,24.5c6.4,5.9,14.3,8.9,23.7,8.9c13.6,0,23.2-5.8,28.9-17.5h39.4
					c-4.2,13.9-12.2,25.3-24,34.3c-11.8,9-26.4,13.4-43.6,13.4c-13.9,0-26.4-3.1-37.4-9.3c-11-6.2-19.6-14.9-25.8-26.2
					c-6.2-11.3-9.3-24.3-9.3-39.1c0-15,3-28.1,9.1-39.4c6.1-11.3,14.6-20,25.6-26.1c10.9-6.1,23.6-9.1,37.8-9.1
					c13.7,0,26,3,36.9,8.9c10.9,5.9,19.3,14.3,25.3,25.2c6,10.9,9,23.3,9,37.4C2290.3,1003.1,2290,1007.8,2289.3,1012z
					 M2252.5,987.4c-0.2-9.4-3.6-16.9-10.2-22.6c-6.6-5.6-14.7-8.5-24.2-8.5c-9,0-16.7,2.7-22.8,8.2c-6.2,5.5-10,13.1-11.4,22.8
					H2252.5z"/>
				<path class="st0" d="M2402.5,1069.2c-9.4-4.3-16.8-10-22.3-17.3c-5.5-7.3-8.5-15.4-9-24.3h36.8c0.7,5.6,3.4,10.2,8.2,13.8
					c4.8,3.7,10.7,5.5,17.9,5.5c7,0,12.4-1.4,16.3-4.2c3.9-2.8,5.9-6.3,5.9-10.7c0-4.7-2.4-8.2-7.2-10.6c-4.8-2.3-12.4-4.9-22.8-7.7
					c-10.8-2.6-19.6-5.3-26.5-8.1c-6.9-2.8-12.8-7-17.7-12.8c-5-5.7-7.4-13.5-7.4-23.2c0-8,2.3-15.3,6.9-21.9
					c4.6-6.6,11.2-11.8,19.8-15.6c8.6-3.8,18.7-5.7,30.4-5.7c17.2,0,31,4.3,41.2,12.9c10.3,8.6,15.9,20.2,17,34.8h-34.9
					c-0.5-5.7-2.9-10.3-7.2-13.7c-4.3-3.4-10-5.1-17.1-5.1c-6.6,0-11.7,1.2-15.3,3.7c-3.6,2.4-5.3,5.8-5.3,10.2
					c0,4.9,2.4,8.6,7.3,11.1c4.9,2.5,12.4,5.1,22.7,7.7c10.4,2.6,19,5.3,25.8,8.1c6.8,2.8,12.7,7.1,17.6,12.9
					c5,5.8,7.5,13.5,7.7,23.1c0,8.3-2.3,15.8-6.9,22.4c-4.6,6.6-11.2,11.8-19.8,15.5s-18.7,5.6-30.1,5.6
					C2422.5,1075.6,2411.8,1073.5,2402.5,1069.2z"/>
				<path class="st0" d="M2563.7,958.8v69.9c0,4.9,1.2,8.4,3.5,10.6c2.3,2.2,6.3,3.3,11.9,3.3h17v30.8h-23
					c-30.8,0-46.2-15-46.2-44.9v-69.6h-17.2v-30h17.2V893h36.8v35.7h32.3v30H2563.7z"/>
				<path class="st0" d="M2648.9,1066.4c-11.1-6.2-19.9-14.9-26.2-26.2c-6.4-11.3-9.5-24.3-9.5-39.1c0-14.8,3.3-27.8,9.8-39.1
					c6.5-11.3,15.4-20,26.7-26.2c11.3-6.2,23.9-9.3,37.8-9.3c13.9,0,26.5,3.1,37.8,9.3c11.3,6.2,20.2,14.9,26.7,26.2
					c6.5,11.3,9.8,24.4,9.8,39.1c0,14.8-3.4,27.8-10.1,39.1c-6.7,11.3-15.7,20-27.1,26.2c-11.4,6.2-24.1,9.3-38.2,9.3
					C2672.6,1075.6,2660.1,1072.5,2648.9,1066.4z M2705.2,1039c5.8-3.2,10.5-8,13.9-14.5c3.5-6.4,5.2-14.3,5.2-23.5
					c0-13.7-3.6-24.3-10.8-31.7c-7.2-7.4-16.1-11.1-26.5-11.1c-10.4,0-19.2,3.7-26.2,11.1c-7,7.4-10.6,18-10.6,31.7
					c0,13.7,3.4,24.3,10.3,31.7c6.9,7.4,15.5,11.1,25.9,11.1C2693.1,1043.8,2699.3,1042.2,2705.2,1039z"/>
				<path class="st0" d="M2843.7,933.2c7.6-4.3,16.2-6.5,25.9-6.5V965h-9.6c-11.5,0-20.1,2.7-26,8.1c-5.8,5.4-8.7,14.8-8.7,28.2v72
					h-36.5V928.8h36.5v22.4C2830,943.5,2836.1,937.5,2843.7,933.2z"/>
				<path class="st0" d="M3027.4,1012h-105.6c0.9,10.4,4.5,18.6,11,24.5c6.4,5.9,14.3,8.9,23.7,8.9c13.6,0,23.2-5.8,28.9-17.5h39.4
					c-4.2,13.9-12.2,25.3-24,34.3c-11.8,9-26.4,13.4-43.6,13.4c-13.9,0-26.4-3.1-37.4-9.3c-11-6.2-19.6-14.9-25.8-26.2
					c-6.2-11.3-9.3-24.3-9.3-39.1c0-15,3-28.1,9.1-39.4c6.1-11.3,14.6-20,25.6-26.1c10.9-6.1,23.6-9.1,37.8-9.1
					c13.7,0,26,3,36.9,8.9c10.9,5.9,19.3,14.3,25.3,25.2c6,10.9,9,23.3,9,37.4C3028.5,1003.1,3028.1,1007.8,3027.4,1012z
					 M2990.6,987.4c-0.2-9.4-3.6-16.9-10.2-22.6c-6.6-5.6-14.7-8.5-24.2-8.5c-9,0-16.7,2.7-22.8,8.2c-6.2,5.5-10,13.1-11.4,22.8
					H2990.6z"/>
			</g>
		</g>
	</g>
</g>
</svg>
