<?xml version="1.0" encoding="utf-8"?>
<!-- Generator: Adobe Illustrator 25.4.1, SVG Export Plug-In . SVG Version: 6.00 Build 0)  -->
<svg version="1.1" id="Layer_1" xmlns="http://www.w3.org/2000/svg" xmlns:xlink="http://www.w3.org/1999/xlink" x="0px" y="0px"
	 viewBox="0 0 1963.43 560.3" style="enable-background:new 0 0 1963.43 560.3;" xml:space="preserve">
<style type="text/css">
	.st0{fill:#FEC944;}
</style>
<path class="st0" d="M191.08,312.05c8.5-13.65,17.1-27.33,25.57-41.1c27.66-44.95,54.95-90.12,84.31-134
	c17.96-26.83,36.77-52.97,60.15-75.47C384.43,39.03,410,19.86,440.52,8.23c24.89-9.49,50.33-10.79,76.14-3.8
	c5.44,1.48,10.25,4.14,15.83,7.14c-9.13,2.1-17.57,3.99-26.14,5.18c-21.67,3.01-40.62,12.4-58.52,24.45
	c-40.57,27.3-71.62,63.61-98.44,103.89c-22.29,33.47-42.16,68.4-62.17,103.25c-10.37,18.05-20.69,36.13-30.93,54.26
	c-3.12,5.53-5.87,11.28-8.97,17.29c4.92,2.48,9.83,4.68,14.93,6.41c36.86,12.49,73.72,25.01,110.62,37.38
	c24.38,8.17,47.98,18.51,72.43,26.44c35.29,11.45,70.85,21.94,107.53,28.11c22.28,3.75,44.75,5.39,67.3,6.18
	c10.86,0.38,21.74,1.61,32.57-0.15c11.11-1.8,22.24-3.54,33.08-6.7c2.14-0.62,4.3-1.27,6.68-3.07
	c-29.52-81.31-34.79-165.93-32.48-252.26c-21.02,21.19-39.93,44.02-59.67,66.08c-19.81,22.13-39.43,44.43-58.75,67.51
	c-5.18-4.15-9.3-8.88-13.23-13.87c-15.4-19.56-28.62-40.45-38.89-63.16c-9.69-21.43-16.77-43.76-23.01-66.39
	c-0.38-1.38-0.84-2.74-1.21-3.92c-0.9-0.56-1.22,0.05-1.49,0.41c-18.49,23.93-37.26,47.66-52.25,74.06
	c-18.71,32.97-36.87,66.24-54.47,99.81c-0.79,1.51-1.65,2.97-2.62,4.72c-9.7-3.63-19.21-7.19-29.14-10.91
	c6.48-11.37,12.75-22.41,19.07-33.43c19.53-34.05,38.62-68.35,59.55-101.58c21.18-33.64,45.43-64.67,76.59-89.81
	c8.57-6.91,17.56-13.23,27.46-19.96c2,59.78,18.89,114.15,53.37,163.08c7.46-5.88,13.38-12.28,19.33-18.64
	c22.65-24.23,45.13-48.64,69.44-71.22c25.02-23.23,51.75-44.36,80.34-63.09c0.88-0.57,1.8-1.07,2.88-1.7
	c1.04,1.54,0.56,3.11,0.52,4.61c-1.03,36.86-4,73.67-2.69,110.58c1.08,30.64,3.78,61.15,7.88,91.52
	c4.13,30.6,9.15,61.05,16.44,91.08c5.64,23.21,12.04,46.14,23.09,67.5c0.23,0.45,0.31,0.97,0.46,1.46
	c-18.24,10.21-37.51,17.42-57.71,22.26c-32.73,7.84-65.84,9.06-99.2,5.62C565.26,469,511,452.9,457.6,433.5
	c-41.97-15.25-83.43-31.82-124.94-48.24c-1.21-0.48-2.44-0.93-4.05-1.54c-4.46,8.83-8.88,17.53-13.25,26.26
	c-10.55,21.09-20.26,42.62-32.59,62.79c-13.71,22.42-28.87,43.81-50.25,59.55c-35.22,25.93-73.22,29.98-113.28,12.04
	c-4.69-2.1-9.16-4.78-13.33-7.87c-2.36-1.75-4.15-3.9-5.91-6.95c7.57-0.57,14.52-1.16,21.48-1.59
	c41.76-2.62,75.47-21.51,103.24-51.77c21.89-23.85,39.4-50.91,55.46-78.92c4.74-8.27,9.14-16.73,12.71-26.02
	c-20.21-7.18-40.25-14.31-60.54-21.52c-2.2,3.56-4.18,6.81-6.2,10.04c-21.82,34.84-48.85,64.7-83.59,87.14
	c-24.83,16.04-51.68,24.68-81.63,22.76c-28.27-1.81-53.62-22.54-59.15-49.53c-3.31-16.14,0.85-30.95,9.05-44.92
	c14.47-24.65,36.14-40.52,62.09-51.14c24.27-9.93,49.68-13.66,75.78-13.75c13.15-0.04,26.26,0.48,39.35,1.68
	C188.94,312.12,189.87,312.05,191.08,312.05z M177.69,336.17c-18.68-0.09-36.5-2-54.39-0.33c-30.9,2.89-57.02,15.32-77.98,38.33
	c-6.9,7.57-12.29,15.83-13.31,26.47c-1.23,12.83,7.29,25.7,19.52,28.13c14.27,2.83,28.21,1.15,41.57-4.59
	c15.06-6.47,27.82-16.28,39.57-27.58C150.83,379.14,163.21,357.43,177.69,336.17z"/>
<g>
	<path class="st0" d="M884.55,271.41l34.08-167.94h71.44c14.29,0,25.65,4.1,34.08,12.3c8.12,8.35,12.18,18.97,12.18,31.85
		c0,18.58-6.4,34.27-19.21,47.08c-12.96,12.73-29.16,19.09-48.6,19.09h-39.35l-11.83,57.62H884.55z M934.91,184.39h33.38
		c10.7,0,19.09-2.81,25.18-8.43c5.7-5.46,8.55-13.23,8.55-23.3c0-6.4-1.99-11.36-5.97-14.87c-4.06-3.36-9.8-5.04-17.22-5.04h-33.38
		L934.91,184.39z"/>
	<path class="st0" d="M1083.64,273.51c-15.93,0-28.11-4.68-36.54-14.05c-8.43-9.37-12.65-21.63-12.65-36.77
		c0-9.91,1.6-19.6,4.8-29.04c3.28-9.68,7.73-17.99,13.35-24.94c5.7-7.1,13.39-13,23.07-17.68c9.29-4.29,19.67-6.44,31.15-6.44
		c18.74,0,32.32,5.74,40.75,17.22c8.2,11.48,10.46,26.04,6.79,43.68l-2.46,12.41h-84.9c-1.48,9.21-0.43,16.28,3.16,21.2
		c3.59,5.23,9.76,7.85,18.5,7.85c13.19,0,22.29-4.8,27.29-14.4h31.39c-4.06,11.87-11.56,21.71-22.49,29.51
		C1113.93,269.69,1100.19,273.51,1083.64,273.51z M1071.58,196.57h51.88c1.17-7.65,0.19-13.74-2.93-18.27
		c-3.44-4.61-9.1-6.91-16.98-6.91c-8.43,0-15.42,2.3-20.96,6.91C1077.2,182.75,1073.53,188.84,1071.58,196.57z"/>
	<path class="st0" d="M1163.39,271.41l25.41-124.72h26.82l-1.17,18.97h0.94c9.13-13.9,21.31-20.85,36.54-20.85h10.31l-7.03,29.75
		h-11.24c-9.76,0-17.84,3.08-24.24,9.25c-6.79,6.56-11.24,15.38-13.35,26.47l-12.53,61.13H1163.39z"/>
	<path class="st0" d="M1261.18,326.33l31.15-152.6h-21.78l5.5-27.05h21.9l2.11-10.54c5.54-29.75,24.32-44.62,56.33-44.62h15.81
		l-5.74,27.64h-11.71c-12.96,0-20.49,5.66-22.6,16.98l-2.11,10.54h29.75l-5.51,27.05h-29.75l-31.15,152.6H1261.18z"/>
	<path class="st0" d="M1401.71,273.51c-14.13,0-24.4-4.06-30.8-12.18c-6.56-8.12-8.39-19.09-5.5-32.91l16.63-81.74h32.09
		l-14.64,72.73c-3.44,16.79,2.58,25.18,18.03,25.18c7.5,0,14.13-2.65,19.91-7.96c5.78-5.07,9.6-12.02,11.48-20.85l13.94-69.1h32.09
		l-25.18,124.72h-28.81l0.23-14.17h-0.94C1430.33,268.09,1417.48,273.51,1401.71,273.51z"/>
	<path class="st0" d="M1666.38,144.57c13.82,0,24.05,4.06,30.68,12.18c6.56,8.35,8.39,19.32,5.5,32.91l-16.75,81.74h-32.21
		l14.87-72.73c3.44-16.63-2.07-24.94-16.51-24.94c-7.03,0-13.04,2.27-18.03,6.79c-5.31,4.84-8.98,11.09-11.01,18.74l-14.64,72.14
		h-31.85l14.87-72.73c3.44-16.63-2.11-24.94-16.63-24.94c-7.65,0-14.29,2.58-19.91,7.73c-5.86,5.15-9.6,12.1-11.24,20.85
		l-14.17,69.1h-32.09l25.41-124.72h28.57l-0.23,14.17h0.94c10.15-10.85,22.95-16.28,38.41-16.28c17.25,0,28.42,6.13,33.49,18.39h0.7
		C1635.43,150.7,1649.36,144.57,1666.38,144.57z"/>
	<path class="st0" d="M1766.16,273.51c-15.93,0-28.11-4.68-36.54-14.05c-8.43-9.37-12.65-21.63-12.65-36.77
		c0-9.91,1.6-19.6,4.8-29.04c3.28-9.68,7.73-17.99,13.35-24.94c5.7-7.1,13.39-13,23.07-17.68c9.29-4.29,19.67-6.44,31.15-6.44
		c18.74,0,32.32,5.74,40.75,17.22c8.2,11.48,10.46,26.04,6.79,43.68l-2.46,12.41h-84.9c-1.48,9.21-0.43,16.28,3.16,21.2
		c3.59,5.23,9.76,7.85,18.5,7.85c13.19,0,22.29-4.8,27.29-14.4h31.39c-4.06,11.87-11.56,21.71-22.49,29.51
		C1796.45,269.69,1782.71,273.51,1766.16,273.51z M1754.1,196.57h51.88c1.17-7.65,0.19-13.74-2.93-18.27
		c-3.44-4.61-9.1-6.91-16.98-6.91c-8.43,0-15.42,2.3-20.96,6.91C1759.72,182.75,1756.05,188.84,1754.1,196.57z"/>
	<path class="st0" d="M1892.64,273.51c-17.49,0-29.94-3.98-37.36-11.95c-7.42-8.04-9.99-18.74-7.73-32.09h32.21
		c-0.94,5,0.16,9.06,3.28,12.18c3.2,3.2,8.16,4.8,14.87,4.8c7.81,0,13.66-1.29,17.57-3.86c3.98-2.26,5.97-5.39,5.97-9.37
		c0-5.39-4.06-8.9-12.18-10.54l-18.97-3.86c-8.82-1.56-16.12-5-21.9-10.31c-5.39-4.92-8.08-11.79-8.08-20.61
		c0-12.96,4.8-23.42,14.4-31.39c9.6-7.96,23.97-11.95,43.1-11.95c15.3,0,26.9,3.83,34.78,11.48c7.57,7.81,10.31,17.8,8.2,29.98
		h-31.62c0.94-4.53-0.04-8.35-2.93-11.48c-2.89-2.89-7.46-4.33-13.7-4.33c-6.09,0-10.97,1.17-14.64,3.51
		c-3.67,2.34-5.5,5.54-5.5,9.6c0,4.84,3.51,7.96,10.54,9.37l21.9,4.33c19.83,4.06,29.75,14.05,29.75,29.98
		c0,14.83-5.47,26.27-16.4,34.31C1927.5,269.45,1912.32,273.51,1892.64,273.51z"/>
</g>
<g>
	<path class="st0" d="M904.3,420.22c-11.38,0-19.73-2.78-25.04-8.35c-5.19-5.44-7.07-12.93-5.65-22.47h17.82
		c-0.63,4.9,0.46,8.66,3.26,11.3c2.72,2.59,6.9,3.89,12.55,3.89c6.99,0,12.22-1.17,15.69-3.51c3.43-2.3,5.15-5.46,5.15-9.48
		c0-4.64-3.43-7.7-10.29-9.16l-12.61-2.82c-14.73-3.3-22.09-10.5-22.09-21.59c0-9.04,3.47-16.32,10.42-21.84
		c6.9-5.48,16.59-8.22,29.06-8.22c10.12,0,17.97,2.66,23.53,7.97c5.65,5.36,7.61,12.22,5.9,20.58h-17.89
		c0.38-3.81-0.56-6.9-2.82-9.29c-2.43-2.3-6.36-3.45-11.8-3.45c-5.9,0-10.31,1.03-13.24,3.08c-3.01,2.13-4.52,4.83-4.52,8.09
		c0,3.98,3.3,6.76,9.92,8.35l11.55,2.57c7.49,1.67,13.32,4.25,17.51,7.72c4.02,3.51,6.02,8.39,6.02,14.62
		c0,9.54-3.47,17.26-10.42,23.16C929.23,417.27,918.56,420.22,904.3,420.22z"/>
	<path class="st0" d="M1043.49,351.13c7.4,0,12.89,2.18,16.44,6.53c3.51,4.48,4.5,10.35,2.95,17.63l-8.97,43.8h-17.26l7.97-38.97
		c1.84-8.91-1.11-13.37-8.85-13.37c-3.77,0-6.99,1.21-9.66,3.64c-2.85,2.59-4.81,5.94-5.9,10.04l-7.84,38.66h-17.07l7.97-38.97
		c1.84-8.91-1.13-13.37-8.91-13.37c-4.1,0-7.66,1.38-10.67,4.14c-3.14,2.76-5.15,6.49-6.02,11.17l-7.59,37.03h-17.2l13.62-66.83
		h15.31l-0.13,7.59h0.5c5.44-5.81,12.3-8.72,20.58-8.72c9.25,0,15.23,3.28,17.95,9.85h0.38
		C1026.9,354.41,1034.37,351.13,1043.49,351.13z"/>
	<path class="st0" d="M1096.95,420.22c-8.53,0-15.06-2.51-19.58-7.53c-4.52-5.02-6.78-11.59-6.78-19.7c0-5.31,0.86-10.5,2.57-15.56
		c1.76-5.19,4.14-9.64,7.15-13.37c3.05-3.81,7.18-6.97,12.36-9.48c4.98-2.3,10.54-3.45,16.69-3.45c10.04,0,17.32,3.08,21.84,9.22
		c4.39,6.15,5.61,13.95,3.64,23.41l-1.32,6.65h-45.5c-0.8,4.94-0.23,8.72,1.69,11.36c1.92,2.8,5.23,4.21,9.92,4.21
		c7.07,0,11.94-2.57,14.62-7.72h16.82c-2.18,6.36-6.19,11.63-12.05,15.81C1113.19,418.17,1105.82,420.22,1096.95,420.22z
		 M1090.49,378.99h27.8c0.63-4.1,0.1-7.36-1.57-9.79c-1.84-2.47-4.87-3.7-9.1-3.7c-4.52,0-8.26,1.23-11.23,3.7
		C1093.5,371.59,1091.54,374.85,1090.49,378.99z"/>
	<path class="st0" d="M1139.69,419.09l19.39-95.14h17.26l-19.45,95.14H1139.69z"/>
	<path class="st0" d="M1171.38,419.09l19.39-95.14h17.26l-19.45,95.14H1171.38z"/>
	<path class="st0" d="M1239.78,419.09l13.62-66.83h14.37l-0.63,10.17h0.5c4.9-7.45,11.42-11.17,19.58-11.17h5.52l-3.77,15.94h-6.03
		c-5.23,0-9.56,1.65-12.99,4.96c-3.64,3.51-6.02,8.24-7.15,14.18l-6.71,32.76H1239.78z"/>
	<path class="st0" d="M1289.74,419.09l13.62-66.83h17.19l-13.62,66.83H1289.74z M1304.8,342.72l3.58-17.95h18.51l-3.64,17.95H1304.8
		z"/>
	<path class="st0" d="M1350.11,420.22c-8.66,0-15.23-2.43-19.7-7.28c-4.6-4.85-6.9-11.38-6.9-19.58c0-12.17,3.52-22.28,10.54-30.31
		c6.94-7.95,16.48-11.92,28.62-11.92c9.25,0,16.11,2.43,20.58,7.28c4.35,4.98,6.03,11.42,5.02,19.33h-17.38
		c0.38-3.51-0.29-6.32-2.01-8.41c-1.8-2.05-4.5-3.08-8.09-3.08c-6.36,0-11.21,2.32-14.56,6.97c-3.35,4.81-5.02,10.94-5.02,18.39
		c0,9,3.87,13.49,11.61,13.49c3.64,0,6.8-1.02,9.48-3.08c2.68-1.92,4.52-4.62,5.52-8.09h17.38c-1.97,7.99-5.92,14.33-11.86,19.02
		C1367.34,417.8,1359.6,420.22,1350.11,420.22z"/>
	<path class="st0" d="M1391.96,419.09l19.39-95.14h17.26l-7.34,35.9h0.5c5.44-5.81,12.34-8.72,20.71-8.72
		c7.45,0,12.97,2.13,16.57,6.4c3.51,4.48,4.5,10.4,2.95,17.76l-8.97,43.8h-17.26l7.97-38.97c1.84-8.91-1.4-13.37-9.73-13.37
		c-4.02,0-7.66,1.38-10.92,4.14c-3.39,2.97-5.5,6.74-6.34,11.3l-7.59,36.9H1391.96z"/>
</g>
</svg>
