<?xml version="1.0" encoding="utf-8"?>
<!-- Generator: Adobe Illustrator 25.4.1, SVG Export Plug-In . SVG Version: 6.00 Build 0)  -->
<svg version="1.1" id="Layer_1" xmlns="http://www.w3.org/2000/svg" xmlns:xlink="http://www.w3.org/1999/xlink" x="0px" y="0px"
	 viewBox="0 0 779.57 560.3" style="enable-background:new 0 0 779.57 560.3;" xml:space="preserve">
<style type="text/css">
	.st0{fill:#FEC944;}
</style>
<path class="st0" d="M191.08,312.05c8.5-13.65,17.1-27.33,25.57-41.1c27.66-44.95,54.95-90.12,84.31-134
	c17.96-26.83,36.77-52.97,60.15-75.47C384.43,39.03,410,19.86,440.52,8.23c24.89-9.49,50.33-10.79,76.14-3.8
	c5.44,1.48,10.25,4.14,15.83,7.14c-9.13,2.1-17.57,3.99-26.14,5.18c-21.67,3.01-40.62,12.4-58.52,24.45
	c-40.57,27.3-71.62,63.61-98.44,103.89c-22.29,33.47-42.16,68.4-62.17,103.25c-10.37,18.05-20.69,36.13-30.93,54.26
	c-3.12,5.53-5.87,11.28-8.97,17.29c4.92,2.48,9.83,4.68,14.93,6.41c36.86,12.49,73.72,25.01,110.62,37.38
	c24.38,8.17,47.98,18.51,72.43,26.44c35.29,11.45,70.85,21.94,107.53,28.11c22.28,3.75,44.75,5.39,67.3,6.18
	c10.86,0.38,21.74,1.61,32.57-0.15c11.11-1.8,22.24-3.54,33.08-6.7c2.14-0.62,4.3-1.27,6.68-3.07
	c-29.52-81.31-34.79-165.93-32.48-252.26c-21.02,21.19-39.93,44.02-59.67,66.08c-19.81,22.13-39.43,44.43-58.75,67.51
	c-5.18-4.15-9.3-8.88-13.23-13.87c-15.4-19.56-28.62-40.45-38.89-63.16c-9.69-21.43-16.77-43.76-23.01-66.39
	c-0.38-1.38-0.84-2.74-1.21-3.92c-0.9-0.56-1.22,0.05-1.49,0.41c-18.49,23.93-37.26,47.66-52.25,74.06
	c-18.71,32.97-36.87,66.24-54.47,99.81c-0.79,1.51-1.65,2.97-2.62,4.72c-9.7-3.63-19.21-7.19-29.14-10.91
	c6.48-11.37,12.75-22.41,19.07-33.43c19.53-34.05,38.62-68.35,59.55-101.58c21.18-33.64,45.43-64.67,76.59-89.81
	c8.57-6.91,17.56-13.23,27.46-19.96c2,59.78,18.89,114.15,53.37,163.08c7.46-5.88,13.38-12.28,19.33-18.64
	c22.65-24.23,45.13-48.64,69.44-71.22c25.02-23.23,51.75-44.36,80.34-63.09c0.88-0.57,1.8-1.07,2.88-1.7
	c1.04,1.54,0.56,3.11,0.52,4.61c-1.03,36.86-4,73.67-2.69,110.58c1.08,30.64,3.78,61.15,7.88,91.52
	c4.13,30.6,9.15,61.05,16.44,91.08c5.64,23.21,12.04,46.14,23.09,67.5c0.23,0.45,0.31,0.97,0.46,1.46
	c-18.24,10.21-37.51,17.42-57.71,22.26c-32.73,7.84-65.84,9.06-99.2,5.62c-56.81-5.85-111.07-21.95-164.47-41.35
	c-41.97-15.25-83.43-31.82-124.94-48.24c-1.21-0.48-2.44-0.93-4.05-1.54c-4.46,8.83-8.88,17.53-13.25,26.26
	c-10.55,21.09-20.26,42.62-32.59,62.79c-13.71,22.42-28.87,43.81-50.25,59.55c-35.22,25.93-73.22,29.98-113.28,12.04
	c-4.69-2.1-9.16-4.78-13.33-7.87c-2.36-1.75-4.15-3.9-5.91-6.95c7.57-0.57,14.52-1.16,21.48-1.59
	c41.76-2.62,75.47-21.51,103.24-51.77c21.89-23.85,39.4-50.91,55.46-78.92c4.74-8.27,9.14-16.73,12.71-26.02
	c-20.21-7.18-40.25-14.31-60.54-21.52c-2.2,3.56-4.18,6.81-6.2,10.04c-21.82,34.84-48.85,64.7-83.59,87.14
	c-24.83,16.04-51.68,24.68-81.63,22.76c-28.27-1.81-53.62-22.54-59.15-49.53c-3.31-16.14,0.85-30.95,9.05-44.92
	c14.47-24.65,36.14-40.52,62.09-51.14c24.27-9.93,49.68-13.66,75.78-13.75c13.15-0.04,26.26,0.48,39.35,1.68
	C188.94,312.12,189.87,312.05,191.08,312.05z M177.69,336.17c-18.68-0.09-36.5-2-54.39-0.33c-30.9,2.89-57.02,15.32-77.98,38.33
	c-6.9,7.57-12.29,15.83-13.31,26.47c-1.23,12.83,7.29,25.7,19.52,28.13c14.27,2.83,28.21,1.15,41.57-4.59
	c15.06-6.47,27.82-16.28,39.57-27.58C150.83,379.14,163.21,357.43,177.69,336.17z"/>
<rect x="1197.6" y="159.32" class="st0" width="141.32" height="141.32"/>
</svg>
