<?xml version="1.0" encoding="utf-8"?>
<!-- Generator: Adobe Illustrator 25.4.1, SVG Export Plug-In . SVG Version: 6.00 Build 0)  -->
<svg version="1.1" id="Layer_1" xmlns="http://www.w3.org/2000/svg" xmlns:xlink="http://www.w3.org/1999/xlink" x="0px" y="0px"
	 viewBox="0 0 365 365" style="enable-background:new 0 0 365 365;" xml:space="preserve">
<style type="text/css">
	.st0{fill:#FEC944;}
	.st1{fill:#353330;stroke:#353330;stroke-width:14;stroke-miterlimit:10;}
</style>
<path class="st0" d="M275.52,365H89.48c-49.5,0-89.63-40.13-89.63-89.63V89.63C-0.15,40.13,39.98,0,89.48,0h186.04
	c49.5,0,89.63,40.13,89.63,89.63v185.73C365.15,324.87,325.02,365,275.52,365z"/>
<path class="st1" d="M89.23,198.63c3.99-6.41,8.03-12.83,12-19.29c12.98-21.1,25.79-42.3,39.57-62.89
	c8.43-12.59,17.26-24.86,28.23-35.42c10.94-10.54,22.95-19.53,37.27-24.99c11.68-4.45,23.62-5.06,35.74-1.78
	c2.55,0.69,4.81,1.94,7.43,3.35c-4.29,0.99-8.25,1.87-12.27,2.43c-10.17,1.41-19.06,5.82-27.47,11.48
	c-19.04,12.81-33.61,29.85-46.2,48.76c-10.46,15.71-19.79,32.1-29.18,48.46c-4.87,8.47-9.71,16.96-14.52,25.47
	c-1.46,2.6-2.76,5.29-4.21,8.11c2.31,1.16,4.61,2.2,7.01,3.01c17.3,5.86,34.6,11.74,51.92,17.54c11.44,3.83,22.52,8.69,33.99,12.41
	c16.56,5.37,33.25,10.3,50.47,13.19c10.46,1.76,21,2.53,31.59,2.9c5.1,0.18,10.2,0.76,15.29-0.07c5.21-0.84,10.44-1.66,15.53-3.14
	c1-0.29,2.02-0.6,3.14-1.44c-13.85-38.16-16.33-77.88-15.24-118.39c-9.87,9.95-18.74,20.66-28.01,31.01
	c-9.3,10.39-18.51,20.85-27.57,31.68c-2.43-1.95-4.36-4.17-6.21-6.51c-7.23-9.18-13.43-18.98-18.25-29.64
	c-4.55-10.06-7.87-20.54-10.8-31.16c-0.18-0.65-0.39-1.29-0.57-1.84c-0.42-0.26-0.57,0.02-0.7,0.19
	c-8.68,11.23-17.49,22.37-24.52,34.76c-8.78,15.47-17.3,31.09-25.56,46.84c-0.37,0.71-0.77,1.39-1.23,2.22
	c-4.55-1.7-9.02-3.37-13.68-5.12c3.04-5.34,5.98-10.52,8.95-15.69c9.17-15.98,18.13-32.08,27.95-47.68
	c9.94-15.79,21.32-30.35,35.95-42.15c4.02-3.24,8.24-6.21,12.89-9.37c0.94,28.06,8.87,53.57,25.05,76.54
	c3.5-2.76,6.28-5.76,9.07-8.75c10.63-11.37,21.18-22.83,32.59-33.43c11.74-10.9,24.29-20.82,37.71-29.61
	c0.41-0.27,0.84-0.5,1.35-0.8c0.49,0.72,0.26,1.46,0.24,2.16c-0.48,17.3-1.88,34.58-1.26,51.9c0.51,14.38,1.77,28.7,3.7,42.95
	c1.94,14.36,4.29,28.65,7.72,42.75c2.65,10.89,5.65,21.66,10.84,31.68c0.11,0.21,0.15,0.46,0.22,0.69
	c-8.56,4.79-17.6,8.18-27.09,10.45c-15.36,3.68-30.9,4.25-46.56,2.64c-26.66-2.75-52.13-10.3-77.19-19.41
	c-19.7-7.16-39.16-14.93-58.64-22.64c-0.57-0.23-1.15-0.44-1.9-0.72c-2.09,4.14-4.17,8.23-6.22,12.32c-4.95,9.9-9.51,20-15.3,29.47
	c-6.43,10.52-13.55,20.56-23.58,27.95c-16.53,12.17-34.36,14.07-53.17,5.65c-2.2-0.99-4.3-2.24-6.26-3.69
	c-1.11-0.82-1.95-1.83-2.77-3.26c3.55-0.27,6.81-0.54,10.08-0.75c19.6-1.23,35.42-10.1,48.45-24.3
	c10.27-11.19,18.49-23.89,26.03-37.04c2.22-3.88,4.29-7.85,5.97-12.21c-9.49-3.37-18.89-6.72-28.41-10.1
	c-1.03,1.67-1.96,3.2-2.91,4.71c-10.24,16.35-22.93,30.37-39.23,40.9c-11.65,7.53-24.26,11.58-38.31,10.68
	c-13.27-0.85-25.17-10.58-27.76-23.25c-1.55-7.58,0.4-14.53,4.25-21.08c6.79-11.57,16.96-19.02,29.14-24
	c11.39-4.66,23.32-6.41,35.57-6.45c6.17-0.02,12.32,0.23,18.47,0.79C88.22,198.67,88.66,198.63,89.23,198.63z M82.94,209.95
	c-8.77-0.04-17.13-0.94-25.53-0.15c-14.5,1.36-26.76,7.19-36.6,17.99c-3.24,3.55-5.77,7.43-6.25,12.42
	c-0.58,6.02,3.42,12.06,9.16,13.2c6.7,1.33,13.24,0.54,19.51-2.15c7.07-3.04,13.06-7.64,18.57-12.94
	C70.34,230.12,76.15,219.93,82.94,209.95z"/>
</svg>
